<svg width="100" height="44" viewBox="0 0 100 44" fill="none" xmlns="http://www.w3.org/2000/svg">
<circle cx="22" cy="22" r="22" fill="#F4DE4D"/>
<path d="M34.778 29.168C33.658 29.168 32.622 28.986 31.67 28.622C30.732 28.244 29.913 27.719 29.213 27.047C28.527 26.361 27.988 25.563 27.596 24.653C27.204 23.743 27.008 22.742 27.008 21.65C27.008 20.558 27.204 19.557 27.596 18.647C27.988 17.737 28.534 16.946 29.234 16.274C29.934 15.588 30.753 15.063 31.691 14.699C32.643 14.321 33.679 14.132 34.799 14.132C35.933 14.132 36.976 14.328 37.928 14.72C38.894 15.098 39.713 15.665 40.385 16.421L39.02 17.744C38.46 17.156 37.83 16.722 37.13 16.442C36.43 16.148 35.681 16.001 34.883 16.001C34.057 16.001 33.287 16.141 32.573 16.421C31.873 16.701 31.264 17.093 30.746 17.597C30.228 18.101 29.822 18.703 29.528 19.403C29.248 20.089 29.108 20.838 29.108 21.65C29.108 22.462 29.248 23.218 29.528 23.918C29.822 24.604 30.228 25.199 30.746 25.703C31.264 26.207 31.873 26.599 32.573 26.879C33.287 27.159 34.057 27.299 34.883 27.299C35.681 27.299 36.43 27.159 37.13 26.879C37.83 26.585 38.46 26.137 39.02 25.535L40.385 26.858C39.713 27.614 38.894 28.188 37.928 28.58C36.976 28.972 35.926 29.168 34.778 29.168Z" fill="black"/>
<path d="M53.82 29V26.648L53.715 26.207V22.196C53.715 21.342 53.463 20.684 52.959 20.222C52.469 19.746 51.727 19.508 50.733 19.508C50.075 19.508 49.431 19.62 48.801 19.844C48.171 20.054 47.639 20.341 47.205 20.705L46.365 19.193C46.939 18.731 47.625 18.381 48.423 18.143C49.235 17.891 50.082 17.765 50.964 17.765C52.49 17.765 53.666 18.136 54.492 18.878C55.318 19.62 55.731 20.754 55.731 22.28V29H53.82ZM50.166 29.126C49.34 29.126 48.612 28.986 47.982 28.706C47.366 28.426 46.89 28.041 46.554 27.551C46.218 27.047 46.05 26.48 46.05 25.85C46.05 25.248 46.19 24.702 46.47 24.212C46.764 23.722 47.233 23.33 47.877 23.036C48.535 22.742 49.417 22.595 50.523 22.595H54.051V24.044H50.607C49.599 24.044 48.92 24.212 48.57 24.548C48.22 24.884 48.045 25.29 48.045 25.766C48.045 26.312 48.262 26.753 48.696 27.089C49.13 27.411 49.732 27.572 50.502 27.572C51.258 27.572 51.916 27.404 52.476 27.068C53.05 26.732 53.463 26.242 53.715 25.598L54.114 26.984C53.848 27.642 53.379 28.167 52.707 28.559C52.035 28.937 51.188 29.126 50.166 29.126ZM65.3628 29.126C64.4388 29.126 63.5918 28.916 62.8218 28.496C62.0658 28.062 61.4568 27.425 60.9948 26.585C60.5468 25.745 60.3228 24.695 60.3228 23.435C60.3228 22.175 60.5398 21.125 60.9738 20.285C61.4218 19.445 62.0238 18.815 62.7798 18.395C63.5498 17.975 64.4108 17.765 65.3628 17.765C66.4548 17.765 67.4208 18.003 68.2608 18.479C69.1008 18.955 69.7658 19.62 70.2558 20.474C70.7458 21.314 70.9908 22.301 70.9908 23.435C70.9908 24.569 70.7458 25.563 70.2558 26.417C69.7658 27.271 69.1008 27.936 68.2608 28.412C67.4208 28.888 66.4548 29.126 65.3628 29.126ZM59.4618 33.074V17.87H61.3938V20.873L61.2678 23.456L61.4778 26.039V33.074H59.4618ZM65.1948 27.362C65.9088 27.362 66.5458 27.201 67.1058 26.879C67.6798 26.557 68.1278 26.102 68.4498 25.514C68.7858 24.912 68.9538 24.219 68.9538 23.435C68.9538 22.637 68.7858 21.951 68.4498 21.377C68.1278 20.789 67.6798 20.334 67.1058 20.012C66.5458 19.69 65.9088 19.529 65.1948 19.529C64.4948 19.529 63.8578 19.69 63.2838 20.012C62.7238 20.334 62.2758 20.789 61.9398 21.377C61.6178 21.951 61.4568 22.637 61.4568 23.435C61.4568 24.219 61.6178 24.912 61.9398 25.514C62.2758 26.102 62.7238 26.557 63.2838 26.879C63.8578 27.201 64.4948 27.362 65.1948 27.362ZM78.7322 29.126C77.5422 29.126 76.4922 28.881 75.5822 28.391C74.6862 27.901 73.9862 27.229 73.4822 26.375C72.9922 25.521 72.7472 24.541 72.7472 23.435C72.7472 22.329 72.9852 21.349 73.4612 20.495C73.9512 19.641 74.6162 18.976 75.4562 18.5C76.3102 18.01 77.2692 17.765 78.3332 17.765C79.4112 17.765 80.3632 18.003 81.1892 18.479C82.0152 18.955 82.6592 19.627 83.1212 20.495C83.5972 21.349 83.8352 22.35 83.8352 23.498C83.8352 23.582 83.8282 23.68 83.8142 23.792C83.8142 23.904 83.8072 24.009 83.7932 24.107H74.3222V22.658H82.7432L81.9242 23.162C81.9382 22.448 81.7912 21.811 81.4832 21.251C81.1752 20.691 80.7482 20.257 80.2022 19.949C79.6702 19.627 79.0472 19.466 78.3332 19.466C77.6332 19.466 77.0102 19.627 76.4642 19.949C75.9182 20.257 75.4912 20.698 75.1832 21.272C74.8752 21.832 74.7212 22.476 74.7212 23.204V23.54C74.7212 24.282 74.8892 24.947 75.2252 25.535C75.5752 26.109 76.0582 26.557 76.6742 26.879C77.2902 27.201 77.9972 27.362 78.7952 27.362C79.4532 27.362 80.0482 27.25 80.5802 27.026C81.1262 26.802 81.6022 26.466 82.0082 26.018L83.1212 27.32C82.6172 27.908 81.9872 28.356 81.2312 28.664C80.4892 28.972 79.6562 29.126 78.7322 29.126ZM91.2336 29.126C90.1556 29.126 89.1896 28.888 88.3356 28.412C87.4956 27.936 86.8306 27.271 86.3406 26.417C85.8506 25.563 85.6056 24.569 85.6056 23.435C85.6056 22.301 85.8506 21.314 86.3406 20.474C86.8306 19.62 87.4956 18.955 88.3356 18.479C89.1896 18.003 90.1556 17.765 91.2336 17.765C92.1716 17.765 93.0186 17.975 93.7746 18.395C94.5306 18.815 95.1326 19.445 95.5806 20.285C96.0426 21.125 96.2736 22.175 96.2736 23.435C96.2736 24.695 96.0496 25.745 95.6016 26.585C95.1676 27.425 94.5726 28.062 93.8166 28.496C93.0606 28.916 92.1996 29.126 91.2336 29.126ZM91.4016 27.362C92.1016 27.362 92.7316 27.201 93.2916 26.879C93.8656 26.557 94.3136 26.102 94.6356 25.514C94.9716 24.912 95.1396 24.219 95.1396 23.435C95.1396 22.637 94.9716 21.951 94.6356 21.377C94.3136 20.789 93.8656 20.334 93.2916 20.012C92.7316 19.69 92.1016 19.529 91.4016 19.529C90.6876 19.529 90.0506 19.69 89.4906 20.012C88.9306 20.334 88.4826 20.789 88.1466 21.377C87.8106 21.951 87.6426 22.637 87.6426 23.435C87.6426 24.219 87.8106 24.912 88.1466 25.514C88.4826 26.102 88.9306 26.557 89.4906 26.879C90.0506 27.201 90.6876 27.362 91.4016 27.362ZM95.2026 29V25.997L95.3286 23.414L95.1186 20.831V13.418H97.1346V29H95.2026Z" fill="black"/>
<rect x="69" y="13" width="12" height="3" fill="black"/>
</svg>
